<?xml version="1.0" encoding="utf-8"?>
<!-- created with bpmn-js / http://bpmn.io -->
<!DOCTYPE svg PUBLIC "-//W3C//DTD SVG 1.1//EN" "http://www.w3.org/Graphics/SVG/1.1/DTD/svg11.dtd">
<svg xmlns="http://www.w3.org/2000/svg" xmlns:xlink="http://www.w3.org/1999/xlink" width="1110" height="715" viewBox="150 40 1110 715" version="1.1"><defs><pattern id="djs-grid-pattern-531125" width="10" height="10" patternUnits="userSpaceOnUse"><circle cx="0.5" cy="0.5" r="0.5" style="fill: rgb(204, 204, 204);"/></pattern></defs><g class="djs-group"><g class="djs-element djs-shape" data-element-id="Participant_0n7rco3" transform="translate(155 45)" style="display: block;"><g class="djs-visual"><rect x="0" y="0" width="1100" height="705" rx="0" ry="0" style="stroke-linecap: round; stroke-linejoin: round; stroke: rgb(34, 36, 42); stroke-width: 1.5px; fill: white; fill-opacity: 0.95;"/><path style="fill: none; stroke-linecap: round; stroke-linejoin: round; stroke: rgb(34, 36, 42); stroke-width: 1.5px;" d="M30,0L30,705"/><text lineHeight="1.2" class="djs-label" transform="matrix(-1.83697e-16 -1 1 -1.83697e-16 0 705)" style="font-family: Arial, sans-serif; font-size: 12px; font-weight: normal; fill: rgb(34, 36, 42);"><tspan x="214.4267578125" y="18.6">Structural Intervention Assessment - Building #2604</tspan></text></g><rect class="djs-hit djs-hit-no-move" x="0" y="0" width="1100" height="705" style="fill: none; stroke-opacity: 0; stroke: white; stroke-width: 15px;"/><rect class="djs-hit djs-hit-click-stroke" x="0" y="0" width="1100" height="705" style="fill: none; stroke-opacity: 0; stroke: white; stroke-width: 15px;"/><rect class="djs-hit djs-hit-all" x="0" y="0" width="30" height="705" style="fill: none; stroke-opacity: 0; stroke: white; stroke-width: 15px;"/><rect x="-5" y="-5" rx="4" width="1110" height="715" class="djs-outline" style="fill: none;"/></g><g class="djs-children"><g class="djs-group"><g class="djs-element djs-shape" data-element-id="Lane_1k9c42f" transform="translate(185 185)" style="display: block;"><g class="djs-visual"><rect x="0" y="0" width="1070" height="135" rx="0" ry="0" style="stroke-linecap: round; stroke-linejoin: round; stroke: rgb(34, 36, 42); stroke-width: 1.5px; fill: white; fill-opacity: 0.25;"/><text lineHeight="1.2" class="djs-label" transform="matrix(-1.83697e-16 -1 1 -1.83697e-16 0 135)" style="font-family: Arial, sans-serif; font-size: 12px; font-weight: normal; fill: rgb(34, 36, 42);"><tspan x="40.8134765625" y="18.6">Exchange</tspan></text></g><rect class="djs-hit djs-hit-no-move" x="0" y="0" width="1070" height="135" style="fill: none; stroke-opacity: 0; stroke: white; stroke-width: 15px;"/><rect class="djs-hit djs-hit-click-stroke" x="0" y="0" width="1070" height="135" style="fill: none; stroke-opacity: 0; stroke: white; stroke-width: 15px;"/><rect class="djs-hit djs-hit-all" x="0" y="0" width="30" height="135" style="fill: none; stroke-opacity: 0; stroke: white; stroke-width: 15px;"/><rect x="-5" y="-5" rx="4" width="1080" height="145" class="djs-outline" style="fill: none;"/></g></g><g class="djs-group"><g class="djs-element djs-shape" data-element-id="Lane_1fbo10f" transform="translate(185 570)" style="display: block;"><g class="djs-visual"><rect x="0" y="0" width="1070" height="180" rx="0" ry="0" style="stroke-linecap: round; stroke-linejoin: round; stroke: rgb(34, 36, 42); stroke-width: 1.5px; fill: white; fill-opacity: 0.25;"/><text lineHeight="1.2" class="djs-label" transform="matrix(-1.83697e-16 -1 1 -1.83697e-16 0 180)" style="font-family: Arial, sans-serif; font-size: 12px; font-weight: normal; fill: rgb(34, 36, 42);"><tspan x="9.298828125" y="11.4">Structural Engineer (Structural </tspan><tspan x="76.32421875" y="25.799999999999997">data)</tspan></text></g><rect class="djs-hit djs-hit-no-move" x="0" y="0" width="1070" height="180" style="fill: none; stroke-opacity: 0; stroke: white; stroke-width: 15px;"/><rect class="djs-hit djs-hit-click-stroke" x="0" y="0" width="1070" height="180" style="fill: none; stroke-opacity: 0; stroke: white; stroke-width: 15px;"/><rect class="djs-hit djs-hit-all" x="0" y="0" width="30" height="180" style="fill: none; stroke-opacity: 0; stroke: white; stroke-width: 15px;"/><rect x="-5" y="-5" rx="4" width="1080" height="190" class="djs-outline" style="fill: none;"/></g></g><g class="djs-group"><g class="djs-element djs-shape selected" data-element-id="Lane_0ru0rew" transform="translate(185 320)" style="display: block;"><g class="djs-visual"><rect x="0" y="0" width="1070" height="250" rx="0" ry="0" style="stroke-linecap: round; stroke-linejoin: round; stroke: rgb(34, 36, 42); stroke-width: 1.5px; fill: white; fill-opacity: 0.25;"/><text lineHeight="1.2" class="djs-label" transform="matrix(-1.83697e-16 -1 1 -1.83697e-16 0 250)" style="font-family: Arial, sans-serif; font-size: 12px; font-weight: normal; fill: rgb(34, 36, 42);"><tspan x="53.97265625" y="18.6">Python Tool (BIM analysis)</tspan></text></g><rect class="djs-hit djs-hit-no-move" x="0" y="0" width="1070" height="250" style="fill: none; stroke-opacity: 0; stroke: white; stroke-width: 15px;"/><rect class="djs-hit djs-hit-click-stroke" x="0" y="0" width="1070" height="250" style="fill: none; stroke-opacity: 0; stroke: white; stroke-width: 15px;"/><rect class="djs-hit djs-hit-all" x="0" y="0" width="30" height="250" style="fill: none; stroke-opacity: 0; stroke: white; stroke-width: 15px;"/><rect x="-5" y="-5" rx="4" width="1080" height="260" class="djs-outline" style="fill: none;"/></g></g><g class="djs-group"><g class="djs-element djs-shape" data-element-id="Lane_0ghycoy" transform="translate(185 45)" style="display: block;"><g class="djs-visual"><rect x="0" y="0" width="1070" height="140" rx="0" ry="0" style="stroke-linecap: round; stroke-linejoin: round; stroke: rgb(34, 36, 42); stroke-width: 1.5px; fill: white; fill-opacity: 0.25;"/><text lineHeight="1.2" class="djs-label" transform="matrix(-1.83697e-16 -1 1 -1.83697e-16 0 140)" style="font-family: Arial, sans-serif; font-size: 12px; font-weight: normal; fill: rgb(34, 36, 42);"><tspan x="13.978515625" y="11.4">Design team (Project </tspan><tspan x="45.98828125" y="25.799999999999997">initiation)</tspan></text></g><rect class="djs-hit djs-hit-no-move" x="0" y="0" width="1070" height="140" style="fill: none; stroke-opacity: 0; stroke: white; stroke-width: 15px;"/><rect class="djs-hit djs-hit-click-stroke" x="0" y="0" width="1070" height="140" style="fill: none; stroke-opacity: 0; stroke: white; stroke-width: 15px;"/><rect class="djs-hit djs-hit-all" x="0" y="0" width="30" height="140" style="fill: none; stroke-opacity: 0; stroke: white; stroke-width: 15px;"/><rect x="-5" y="-5" rx="4" width="1080" height="150" class="djs-outline" style="fill: none;"/></g></g><g class="djs-group"><g class="djs-element djs-shape" data-element-id="Event_1k40v5o" transform="translate(237 97)" style="display: block;"><g class="djs-visual"><circle cx="18" cy="18" r="18" style="stroke-linecap: round; stroke-linejoin: round; stroke: rgb(32, 80, 34); stroke-width: 2px; fill: rgb(200, 230, 201); fill-opacity: 0.95;"/></g><rect class="djs-hit djs-hit-all" x="0" y="0" width="36" height="36" style="fill: none; stroke-opacity: 0; stroke: white; stroke-width: 15px;"/><circle cx="18" cy="18" r="23" class="djs-outline" style="fill: none;"/></g></g><g class="djs-group"><g class="djs-element djs-shape" data-element-id="Event_1k40v5o_label" transform="translate(219 140)" style="display: block;"><g class="djs-visual"><text lineHeight="1.2" class="djs-label" style="font-family: Arial, sans-serif; font-size: 11px; font-weight: normal; fill: rgb(32, 80, 34);"><tspan x="0.164306640625" y="9.899999999999999">Need to asses existing</tspan><tspan x="9.037353515625" y="23.099999999999998">structural elements</tspan></text></g><rect class="djs-hit djs-hit-all" x="0" y="0" width="111" height="27" style="fill: none; stroke-opacity: 0; stroke: white; stroke-width: 15px;"/><rect x="-5" y="-5" rx="4" width="121" height="37" class="djs-outline" style="fill: none;"/></g></g><g class="djs-group"><g class="djs-element djs-shape" data-element-id="Activity_0hmaap4" transform="translate(355 75)" style="display: block;"><g class="djs-visual"><rect x="0" y="0" width="100" height="80" rx="10" ry="10" style="stroke-linecap: round; stroke-linejoin: round; stroke: rgb(34, 36, 42); stroke-width: 2px; fill: white; fill-opacity: 0.95;"/><text lineHeight="1.2" class="djs-label" style="font-family: Arial, sans-serif; font-size: 12px; font-weight: normal; fill: rgb(34, 36, 42);"><tspan x="12.98046875" y="36.4">Define project </tspan><tspan x="14.984375" y="50.8">requirements</tspan></text></g><rect class="djs-hit djs-hit-all" x="0" y="0" width="100" height="80" style="fill: none; stroke-opacity: 0; stroke: white; stroke-width: 15px;"/><rect x="-5" y="-5" rx="14" width="110" height="90" class="djs-outline" style="fill: none;"/></g></g><g class="djs-group"><g class="djs-element djs-shape" data-element-id="Activity_17op4uk" transform="translate(510 75)" style="display: block;"><g class="djs-visual"><rect x="0" y="0" width="100" height="80" rx="10" ry="10" style="stroke-linecap: round; stroke-linejoin: round; stroke: rgb(34, 36, 42); stroke-width: 2px; fill: white; fill-opacity: 0.95;"/><text lineHeight="1.2" class="djs-label" style="font-family: Arial, sans-serif; font-size: 12px; font-weight: normal; fill: rgb(34, 36, 42);"><tspan x="18.32421875" y="22">Provide IFC </tspan><tspan x="21.98046875" y="36.4">model and </tspan><tspan x="31.9912109375" y="50.8">project </tspan><tspan x="20.3193359375" y="65.19999999999999">information</tspan></text></g><rect class="djs-hit djs-hit-all" x="0" y="0" width="100" height="80" style="fill: none; stroke-opacity: 0; stroke: white; stroke-width: 15px;"/><rect x="-5" y="-5" rx="14" width="110" height="90" class="djs-outline" style="fill: none;"/></g></g><g class="djs-group"><g class="djs-element djs-shape" data-element-id="Activity_0dgjjvi" transform="translate(220 380)" style="display: block;"><g class="djs-visual"><rect x="0" y="0" width="100" height="80" rx="10" ry="10" style="stroke-linecap: round; stroke-linejoin: round; stroke: rgb(34, 36, 42); stroke-width: 2px; fill: white; fill-opacity: 0.95;"/><text lineHeight="1.2" class="djs-label" style="font-family: Arial, sans-serif; font-size: 12px; font-weight: normal; fill: rgb(34, 36, 42);"><tspan x="21.318359375" y="22">Import and </tspan><tspan x="17.6591796875" y="36.4">process IFC </tspan><tspan x="11.9873046875" y="50.8">model (extract </tspan><tspan x="25.66015625" y="65.19999999999999">columns)</tspan></text></g><rect class="djs-hit djs-hit-all" x="0" y="0" width="100" height="80" style="fill: none; stroke-opacity: 0; stroke: white; stroke-width: 15px;"/><rect x="-5" y="-5" rx="14" width="110" height="90" class="djs-outline" style="fill: none;"/></g></g><g class="djs-group"><g class="djs-element djs-shape" data-element-id="Activity_0qhnn98" transform="translate(355 380)" style="display: block;"><g class="djs-visual"><rect x="0" y="0" width="100" height="80" rx="10" ry="10" style="stroke-linecap: round; stroke-linejoin: round; stroke: rgb(34, 36, 42); stroke-width: 2px; fill: white; fill-opacity: 0.95;"/><text lineHeight="1.2" class="djs-label" style="font-family: Arial, sans-serif; font-size: 12px; font-weight: normal; fill: rgb(34, 36, 42);"><tspan x="30.6552734375" y="36.4">Identify </tspan><tspan x="27.658203125" y="50.8">columns</tspan></text></g><rect class="djs-hit djs-hit-all" x="0" y="0" width="100" height="80" style="fill: none; stroke-opacity: 0; stroke: white; stroke-width: 15px;"/><rect x="-5" y="-5" rx="14" width="110" height="90" class="djs-outline" style="fill: none;"/></g></g><g class="djs-group"><g class="djs-element djs-shape" data-element-id="Activity_0zjfte2" transform="translate(490 380)" style="display: block;"><g class="djs-visual"><rect x="0" y="0" width="100" height="80" rx="10" ry="10" style="stroke-linecap: round; stroke-linejoin: round; stroke: rgb(34, 36, 42); stroke-width: 2px; fill: white; fill-opacity: 0.95;"/><text lineHeight="1.2" class="djs-label" style="font-family: Arial, sans-serif; font-size: 12px; font-weight: normal; fill: rgb(34, 36, 42);"><tspan x="31.3291015625" y="22">Extract </tspan><tspan x="20.984375" y="36.4">dimension, </tspan><tspan x="10.9853515625" y="50.8">material, types </tspan><tspan x="10.970703125" y="65.19999999999999">and quantities.</tspan></text></g><rect class="djs-hit djs-hit-all" x="0" y="0" width="100" height="80" style="fill: none; stroke-opacity: 0; stroke: white; stroke-width: 15px;"/><rect x="-5" y="-5" rx="14" width="110" height="90" class="djs-outline" style="fill: none;"/></g></g><g class="djs-group"><g class="djs-element djs-shape" data-element-id="Activity_1hjac7m" transform="translate(620 380)" style="display: block;"><g class="djs-visual"><rect x="0" y="0" width="100" height="80" rx="10" ry="10" style="stroke-linecap: round; stroke-linejoin: round; stroke: rgb(34, 36, 42); stroke-width: 2px; fill: white; fill-opacity: 0.95;"/><text lineHeight="1.2" class="djs-label" style="font-family: Arial, sans-serif; font-size: 12px; font-weight: normal; fill: rgb(34, 36, 42);"><tspan x="8.984375" y="29.200000000000003">Assign material </tspan><tspan x="8.990234375" y="43.6">unit costs (from</tspan><tspan x="10.642578125" y="58">cost database)</tspan></text></g><rect class="djs-hit djs-hit-all" x="0" y="0" width="100" height="80" style="fill: none; stroke-opacity: 0; stroke: white; stroke-width: 15px;"/><rect x="-5" y="-5" rx="14" width="110" height="90" class="djs-outline" style="fill: none;"/></g></g><g class="djs-group"><g class="djs-element djs-shape" data-element-id="Activity_10ps8uf" transform="translate(750 380)" style="display: block;"><g class="djs-visual"><rect x="0" y="0" width="100" height="80" rx="10" ry="10" style="stroke-linecap: round; stroke-linejoin: round; stroke: rgb(34, 36, 42); stroke-width: 2px; fill: white; fill-opacity: 0.95;"/><text lineHeight="1.2" class="djs-label" style="font-family: Arial, sans-serif; font-size: 12px; font-weight: normal; fill: rgb(34, 36, 42);"><tspan x="12.3154296875" y="36.4">Calculate cost </tspan><tspan x="18.3154296875" y="50.8">per element</tspan></text></g><rect class="djs-hit djs-hit-all" x="0" y="0" width="100" height="80" style="fill: none; stroke-opacity: 0; stroke: white; stroke-width: 15px;"/><rect x="-5" y="-5" rx="14" width="110" height="90" class="djs-outline" style="fill: none;"/></g></g><g class="djs-group"><g class="djs-element djs-shape" data-element-id="Activity_0nvta50" transform="translate(880 380)" style="display: block;"><g class="djs-visual"><rect x="0" y="0" width="100" height="80" rx="10" ry="10" style="stroke-linecap: round; stroke-linejoin: round; stroke: rgb(34, 36, 42); stroke-width: 2px; fill: white; fill-opacity: 0.95;"/><text lineHeight="1.2" class="djs-label" style="font-family: Arial, sans-serif; font-size: 12px; font-weight: normal; fill: rgb(34, 36, 42);"><tspan x="11.978515625" y="22">Calculate total </tspan><tspan x="19.6513671875" y="36.4">cost of new </tspan><tspan x="25.326171875" y="50.8">structural </tspan><tspan x="25.654296875" y="65.19999999999999">elements</tspan></text></g><rect class="djs-hit djs-hit-all" x="0" y="0" width="100" height="80" style="fill: none; stroke-opacity: 0; stroke: white; stroke-width: 15px;"/><rect x="-5" y="-5" rx="14" width="110" height="90" class="djs-outline" style="fill: none;"/></g></g><g class="djs-group"><g class="djs-element djs-shape" data-element-id="Activity_0myjkjx" transform="translate(1010 380)" style="display: block;"><g class="djs-visual"><rect x="0" y="0" width="100" height="80" rx="10" ry="10" style="stroke-linecap: round; stroke-linejoin: round; stroke: rgb(34, 36, 42); stroke-width: 2px; fill: white; fill-opacity: 0.95;"/><text lineHeight="1.2" class="djs-label" style="font-family: Arial, sans-serif; font-size: 12px; font-weight: normal; fill: rgb(34, 36, 42);"><tspan x="12.3125" y="36.4">Generate cost </tspan><tspan x="34.326171875" y="50.8">report</tspan></text></g><rect class="djs-hit djs-hit-all" x="0" y="0" width="100" height="80" style="fill: none; stroke-opacity: 0; stroke: white; stroke-width: 15px;"/><rect x="-5" y="-5" rx="14" width="110" height="90" class="djs-outline" style="fill: none;"/></g></g><g class="djs-group"><g class="djs-element djs-shape" data-element-id="Activity_14usuny" transform="translate(700 600)" style="display: block;"><g class="djs-visual"><rect x="0" y="0" width="100" height="80" rx="10" ry="10" style="stroke-linecap: round; stroke-linejoin: round; stroke: rgb(34, 36, 42); stroke-width: 2px; fill: white; fill-opacity: 0.95;"/><text lineHeight="1.2" class="djs-label" style="font-family: Arial, sans-serif; font-size: 12px; font-weight: normal; fill: rgb(34, 36, 42);"><tspan x="17.65625" y="29.200000000000003">Review cost </tspan><tspan x="22.6484375" y="43.6">report and </tspan><tspan x="32.328125" y="58">results</tspan></text></g><rect class="djs-hit djs-hit-all" x="0" y="0" width="100" height="80" style="fill: none; stroke-opacity: 0; stroke: white; stroke-width: 15px;"/><rect x="-5" y="-5" rx="14" width="110" height="90" class="djs-outline" style="fill: none;"/></g></g><g class="djs-group"><g class="djs-element djs-shape" data-element-id="Activity_10qgqqe" transform="translate(830 600)" style="display: block;"><g class="djs-visual"><rect x="0" y="0" width="100" height="80" rx="10" ry="10" style="stroke-linecap: round; stroke-linejoin: round; stroke: rgb(34, 36, 42); stroke-width: 2px; fill: white; fill-opacity: 0.95;"/><text lineHeight="1.2" class="djs-label" style="font-family: Arial, sans-serif; font-size: 12px; font-weight: normal; fill: rgb(34, 36, 42);"><tspan x="12.986328125" y="22">Compare with </tspan><tspan x="11.97265625" y="36.4">project budget</tspan><tspan x="31.3173828125" y="50.8">(36000 </tspan><tspan x="25.6630859375" y="65.19999999999999">DKK/m2)</tspan></text></g><rect class="djs-hit djs-hit-all" x="0" y="0" width="100" height="80" style="fill: none; stroke-opacity: 0; stroke: white; stroke-width: 15px;"/><rect x="-5" y="-5" rx="14" width="110" height="90" class="djs-outline" style="fill: none;"/></g></g><g class="djs-group"><g class="djs-element djs-shape" data-element-id="Gateway_1wq2pik" transform="translate(975 615)" style="display: block;"><g class="djs-visual"><polygon points="25,0 50,25 25,50 0,25" style="stroke-linecap: round; stroke-linejoin: round; stroke: rgb(34, 36, 42); stroke-width: 2px; fill: white; fill-opacity: 0.95;"/><path d="m 16,15 7.42857142857143,9.714285714285715 -7.42857142857143,9.714285714285715 3.428571428571429,0 5.714285714285715,-7.464228571428572 5.714285714285715,7.464228571428572 3.428571428571429,0 -7.42857142857143,-9.714285714285715 7.42857142857143,-9.714285714285715 -3.428571428571429,0 -5.714285714285715,7.464228571428572 -5.714285714285715,-7.464228571428572 -3.428571428571429,0 z" style="fill: rgb(34, 36, 42); stroke-linecap: round; stroke-linejoin: round; stroke: rgb(34, 36, 42); stroke-width: 1px;"/></g><rect class="djs-hit djs-hit-all" x="0" y="0" width="50" height="50" style="fill: none; stroke-opacity: 0; stroke: white; stroke-width: 15px;"/><rect x="2" y="2" rx="4" width="46" height="46" class="djs-outline" style="transform-box: fill-box; transform: rotate(45deg); transform-origin: center center; fill: none;"/></g></g><g class="djs-group"><g class="djs-element djs-shape" data-element-id="Gateway_1wq2pik_label" transform="translate(970 578)" style="display: block;"><g class="djs-visual"><text lineHeight="1.2" class="djs-label" style="font-family: Arial, sans-serif; font-size: 11px; font-weight: normal; fill: rgb(34, 36, 42);"><tspan x="11.660400390625" y="9.899999999999999">Results </tspan><tspan x="0.338134765625" y="23.099999999999998">acceptable?</tspan></text></g><rect class="djs-hit djs-hit-all" x="0" y="0" width="60" height="27" style="fill: none; stroke-opacity: 0; stroke: white; stroke-width: 15px;"/><rect x="-5" y="-5" rx="4" width="70" height="37" class="djs-outline" style="fill: none;"/></g></g><g class="djs-group"><g class="djs-element djs-shape" data-element-id="Event_17zzglf" transform="translate(1082 622)" style="display: block;"><g class="djs-visual"><circle cx="18" cy="18" r="18" style="stroke-linecap: round; stroke-linejoin: round; stroke: rgb(131, 19, 17); stroke-width: 1.5px; fill: rgb(255, 205, 210); fill-opacity: 0.95;"/><circle cx="18" cy="18" r="15" style="stroke-linecap: round; stroke-linejoin: round; stroke: rgb(131, 19, 17); stroke-width: 1.5px; fill: none;"/></g><rect class="djs-hit djs-hit-all" x="0" y="0" width="36" height="36" style="fill: none; stroke-opacity: 0; stroke: white; stroke-width: 15px;"/><circle cx="18" cy="18" r="23" class="djs-outline" style="fill: none;"/></g></g><g class="djs-group"><g class="djs-element djs-shape" data-element-id="Event_17zzglf_label" transform="translate(1090 665)" style="display: block;"><g class="djs-visual"><text lineHeight="1.2" class="djs-label" style="font-family: Arial, sans-serif; font-size: 11px; font-weight: normal; fill: rgb(131, 19, 17);"><tspan x="0.2138671875" y="9.899999999999999">End</tspan></text></g><rect class="djs-hit djs-hit-all" x="0" y="0" width="20" height="14" style="fill: none; stroke-opacity: 0; stroke: white; stroke-width: 15px;"/><rect x="-5" y="-5" rx="4" width="30" height="24" class="djs-outline" style="fill: none;"/></g></g><g class="djs-group"><g class="djs-element djs-shape" data-element-id="DataObjectReference_0jegbzt" transform="translate(962 215)" style="display: block;"><g class="djs-visual"><path d="m 0,0 28.23529411764706,0 7.058823529411765,8.196721311475411 0,40.98360655737705 -35.294117647058826,0 0,-49.18032786885246 28.23529411764706,0 0,8.196721311475411 7.058823529411765,0" style="fill: white; stroke-linecap: round; stroke-linejoin: round; stroke: rgb(34, 36, 42); stroke-width: 2px; fill-opacity: 0.95;"/></g><rect class="djs-hit djs-hit-all" x="0" y="0" width="36" height="50" style="fill: none; stroke-opacity: 0; stroke: white; stroke-width: 15px;"/><path d="M44.7648 11.3263L36.9892 2.64074C36.0451 1.58628 34.5651 0.988708 33.1904 0.988708H5.98667C3.22688 0.988708 0.989624 3.34892 0.989624 6.26039V55.0235C0.989624 57.9349 3.22688 60.2952 5.98667 60.2952H40.966C43.7257 60.2952 45.963 57.9349 45.963 55.0235V14.9459C45.963 13.5998 45.6407 12.3048 44.7648 11.3263Z" transform="translate(-6, -6)" class="djs-outline" style="stroke-width: 2px; fill: none;"/></g></g><g class="djs-group"><g class="djs-element djs-shape" data-element-id="DataObjectReference_0jegbzt_label" transform="translate(944 272)" style="display: block;"><g class="djs-visual"><text lineHeight="1.2" class="djs-label" style="font-family: Arial, sans-serif; font-size: 11px; font-weight: normal; fill: rgb(34, 36, 42);"><tspan x="0.42236328125" y="9.899999999999999">Project Budget</tspan><tspan x="21.2138671875" y="23.099999999999998">Target</tspan></text></g><rect class="djs-hit djs-hit-all" x="0" y="0" width="73" height="27" style="fill: none; stroke-opacity: 0; stroke: white; stroke-width: 15px;"/><rect x="-5" y="-5" rx="4" width="83" height="37" class="djs-outline" style="fill: none;"/></g></g><g class="djs-group"><g class="djs-element djs-shape" data-element-id="DataStoreReference_1kzwrmk" transform="translate(645 485)" style="display: block;"><g class="djs-visual"><path d="m  0,6.65 l  0,36.885245901639344 c  1.639344262295082,8.196721311475411 47.540983606557376,8.196721311475411  49.18032786885246,0 l  0,-36.885245901639344 c -1.639344262295082,-8.196721311475411 -47.540983606557376,-8.196721311475411 -49.18032786885246,0c  1.639344262295082,8.196721311475411 47.540983606557376,8.196721311475411  49.18032786885246,0 m  -49.18032786885246,5.737704918032787c  1.639344262295082,8.196721311475411 47.540983606557376,8.196721311475411 49.18032786885246,0m  -49.18032786885246,5.737704918032787c  1.639344262295082,8.196721311475411 47.540983606557376,8.196721311475411  49.18032786885246,0" style="fill: white; stroke-linecap: round; stroke-linejoin: round; stroke: rgb(34, 36, 42); stroke-width: 2px; fill-opacity: 0.95;"/></g><rect class="djs-hit djs-hit-all" x="0" y="0" width="50" height="50" style="fill: none; stroke-opacity: 0; stroke: white; stroke-width: 15px;"/><path d="M1.03845 48.1347C1.03845 49.3511 1.07295 50.758 1.38342 52.064C1.69949 53.3938 2.32428 54.7154 3.56383 55.6428C6.02533 57.4841 10.1161 58.7685 14.8212 59.6067C19.5772 60.4538 25.1388 60.8738 30.6831 60.8738C36.2276 60.8738 41.7891 60.4538 46.545 59.6067C51.2504 58.7687 55.3412 57.4842 57.8028 55.6429C59.0424 54.7156 59.6673 53.3938 59.9834 52.064C60.2938 50.7579 60.3285 49.351 60.3285 48.1344V13.8415C60.3285 12.6249 60.2938 11.218 59.9834 9.91171C59.6673 8.58194 59.0423 7.2602 57.8027 6.33294C55.341 4.49168 51.2503 3.20723 46.545 2.36914C41.7891 1.522 36.2276 1.10204 30.6831 1.10205C25.1388 1.10206 19.5772 1.52206 14.8213 2.36923C10.1162 3.20734 6.02543 4.49183 3.5639 6.33314C2.32433 7.26038 1.69951 8.58206 1.38343 9.91181C1.07295 11.2179 1.03845 12.6247 1.03845 13.8411V48.1347Z" transform="translate(-6, -6)" class="djs-outline" style="stroke-width: 2px; fill: none;"/></g></g><g class="djs-group"><g class="djs-element djs-shape" data-element-id="DataStoreReference_1kzwrmk_label" transform="translate(628 542)" style="display: block;"><g class="djs-visual"><text lineHeight="1.2" class="djs-label" style="font-family: Arial, sans-serif; font-size: 11px; font-weight: normal; fill: rgb(34, 36, 42);"><tspan x="12.042724609375" y="9.899999999999999">Material unit </tspan><tspan x="7.75390625" y="23.099999999999998">cost database</tspan></text></g><rect class="djs-hit djs-hit-all" x="0" y="0" width="84" height="27" style="fill: none; stroke-opacity: 0; stroke: white; stroke-width: 15px;"/><rect x="-5" y="-5" rx="4" width="94" height="37" class="djs-outline" style="fill: none;"/></g></g><g class="djs-group"><g class="djs-element djs-shape" data-element-id="DataObjectReference_1lbxwao" transform="translate(822 215)" style="display: block;"><g class="djs-visual"><path d="m 0,0 28.23529411764706,0 7.058823529411765,8.196721311475411 0,40.98360655737705 -35.294117647058826,0 0,-49.18032786885246 28.23529411764706,0 0,8.196721311475411 7.058823529411765,0" style="fill: white; stroke-linecap: round; stroke-linejoin: round; stroke: rgb(34, 36, 42); stroke-width: 2px; fill-opacity: 0.95;"/></g><rect class="djs-hit djs-hit-all" x="0" y="0" width="36" height="50" style="fill: none; stroke-opacity: 0; stroke: white; stroke-width: 15px;"/><path d="M44.7648 11.3263L36.9892 2.64074C36.0451 1.58628 34.5651 0.988708 33.1904 0.988708H5.98667C3.22688 0.988708 0.989624 3.34892 0.989624 6.26039V55.0235C0.989624 57.9349 3.22688 60.2952 5.98667 60.2952H40.966C43.7257 60.2952 45.963 57.9349 45.963 55.0235V14.9459C45.963 13.5998 45.6407 12.3048 44.7648 11.3263Z" transform="translate(-6, -6)" class="djs-outline" style="stroke-width: 2px; fill: none;"/></g></g><g class="djs-group"><g class="djs-element djs-connection" data-element-id="Flow_1ta3uw1" style="display: block;"><g class="djs-visual"><defs><marker id="marker-2oq7fotxq3mmymhz754i6fmcs" viewBox="0 0 20 20" refX="11" refY="10" markerWidth="10" markerHeight="10" orient="auto"><path d="M 1 5 L 11 10 L 1 15 Z" style="stroke-linecap: round; stroke-linejoin: round; stroke: rgb(34, 36, 42); stroke-width: 1px; fill: rgb(34, 36, 42);"/></marker></defs><path data-corner-radius="5" style="fill: none; stroke-linecap: round; stroke-linejoin: round; stroke: rgb(34, 36, 42); stroke-width: 2px; marker-end: url('#marker-2oq7fotxq3mmymhz754i6fmcs');" d="M273,115L355,115"/></g><path d="M273,115L355,115" class="djs-hit djs-hit-stroke" style="fill: none; stroke-opacity: 0; stroke: white; stroke-width: 15px;"/></g></g><g class="djs-group"><g class="djs-element djs-connection" data-element-id="Flow_1ryg811" style="display: block;"><g class="djs-visual"><defs><marker id="marker-et9wnq1qvvk2x02moing54143" viewBox="0 0 20 20" refX="11" refY="10" markerWidth="10" markerHeight="10" orient="auto"><path d="M 1 5 L 11 10 L 1 15 Z" style="stroke-linecap: round; stroke-linejoin: round; stroke: rgb(34, 36, 42); stroke-width: 1px; fill: rgb(34, 36, 42);"/></marker></defs><path data-corner-radius="5" style="fill: none; stroke-linecap: round; stroke-linejoin: round; stroke: rgb(34, 36, 42); stroke-width: 2px; marker-end: url('#marker-et9wnq1qvvk2x02moing54143');" d="M455,115L510,115"/></g><path d="M455,115L510,115" class="djs-hit djs-hit-stroke" style="fill: none; stroke-opacity: 0; stroke: white; stroke-width: 15px;"/></g></g><g class="djs-group"><g class="djs-element djs-connection" data-element-id="Flow_15etb13" style="display: block;"><g class="djs-visual"><defs><marker id="marker-3vb6hubtu33pvld4qsx5ixzuh" viewBox="0 0 20 20" refX="11" refY="10" markerWidth="10" markerHeight="10" orient="auto"><path d="M 1 5 L 11 10 L 1 15 Z" style="stroke-linecap: round; stroke-linejoin: round; stroke: rgb(34, 36, 42); stroke-width: 1px; fill: rgb(34, 36, 42);"/></marker></defs><path data-corner-radius="5" style="fill: none; stroke-linecap: round; stroke-linejoin: round; stroke: rgb(34, 36, 42); stroke-width: 2px; marker-end: url('#marker-3vb6hubtu33pvld4qsx5ixzuh');" d="M610,115L645,115C647.5,115,650,117.5,650,120L650,335C650,337.5,647.5,340,645,340L235,340C232.5,340,230,342.5,230,345L230,380"/></g><path d="M610,115L650,115L650,340L230,340L230,380" class="djs-hit djs-hit-stroke" style="fill: none; stroke-opacity: 0; stroke: white; stroke-width: 15px;"/><rect x="225" y="110" rx="4" width="430" height="275" class="djs-outline" style="fill: none;"/></g></g><g class="djs-group"><g class="djs-element djs-connection" data-element-id="Flow_0b3kwfl" style="display: block;"><g class="djs-visual"><defs><marker id="marker-1hdfoxis5a3jcsye3qc60v4od" viewBox="0 0 20 20" refX="11" refY="10" markerWidth="10" markerHeight="10" orient="auto"><path d="M 1 5 L 11 10 L 1 15 Z" style="stroke-linecap: round; stroke-linejoin: round; stroke: rgb(34, 36, 42); stroke-width: 1px; fill: rgb(34, 36, 42);"/></marker></defs><path data-corner-radius="5" style="fill: none; stroke-linecap: round; stroke-linejoin: round; stroke: rgb(34, 36, 42); stroke-width: 2px; marker-end: url('#marker-1hdfoxis5a3jcsye3qc60v4od');" d="M320,420L355,420"/></g><path d="M320,420L355,420" class="djs-hit djs-hit-stroke" style="fill: none; stroke-opacity: 0; stroke: white; stroke-width: 15px;"/><rect x="315" y="415" rx="4" width="45" height="10" class="djs-outline" style="fill: none;"/></g></g><g class="djs-group"><g class="djs-element djs-connection" data-element-id="Flow_1a1m915" style="display: block;"><g class="djs-visual"><defs><marker id="marker-7v2t72wzziht7ieoennqxme2e" viewBox="0 0 20 20" refX="11" refY="10" markerWidth="10" markerHeight="10" orient="auto"><path d="M 1 5 L 11 10 L 1 15 Z" style="stroke-linecap: round; stroke-linejoin: round; stroke: rgb(34, 36, 42); stroke-width: 1px; fill: rgb(34, 36, 42);"/></marker></defs><path data-corner-radius="5" style="fill: none; stroke-linecap: round; stroke-linejoin: round; stroke: rgb(34, 36, 42); stroke-width: 2px; marker-end: url('#marker-7v2t72wzziht7ieoennqxme2e');" d="M455,420L490,420"/></g><path d="M455,420L490,420" class="djs-hit djs-hit-stroke" style="fill: none; stroke-opacity: 0; stroke: white; stroke-width: 15px;"/><rect x="450" y="415" rx="4" width="45" height="10" class="djs-outline" style="fill: none;"/></g></g><g class="djs-group"><g class="djs-element djs-connection" data-element-id="Flow_0c3jq9j" style="display: block;"><g class="djs-visual"><defs><marker id="marker-8dmvtv3tztunp6lv65333gpiy" viewBox="0 0 20 20" refX="11" refY="10" markerWidth="10" markerHeight="10" orient="auto"><path d="M 1 5 L 11 10 L 1 15 Z" style="stroke-linecap: round; stroke-linejoin: round; stroke: rgb(34, 36, 42); stroke-width: 1px; fill: rgb(34, 36, 42);"/></marker></defs><path data-corner-radius="5" style="fill: none; stroke-linecap: round; stroke-linejoin: round; stroke: rgb(34, 36, 42); stroke-width: 2px; marker-end: url('#marker-8dmvtv3tztunp6lv65333gpiy');" d="M590,420L620,420"/></g><path d="M590,420L620,420" class="djs-hit djs-hit-stroke" style="fill: none; stroke-opacity: 0; stroke: white; stroke-width: 15px;"/></g></g><g class="djs-group"><g class="djs-element djs-connection" data-element-id="Flow_0em877o" style="display: block;"><g class="djs-visual"><defs><marker id="marker-31o0y032zqfpgkjaw229er4an" viewBox="0 0 20 20" refX="11" refY="10" markerWidth="10" markerHeight="10" orient="auto"><path d="M 1 5 L 11 10 L 1 15 Z" style="stroke-linecap: round; stroke-linejoin: round; stroke: rgb(34, 36, 42); stroke-width: 1px; fill: rgb(34, 36, 42);"/></marker></defs><path data-corner-radius="5" style="fill: none; stroke-linecap: round; stroke-linejoin: round; stroke: rgb(34, 36, 42); stroke-width: 2px; marker-end: url('#marker-31o0y032zqfpgkjaw229er4an');" d="M720,420L750,420"/></g><path d="M720,420L750,420" class="djs-hit djs-hit-stroke" style="fill: none; stroke-opacity: 0; stroke: white; stroke-width: 15px;"/><rect x="715" y="415" rx="4" width="40" height="10" class="djs-outline" style="fill: none;"/></g></g><g class="djs-group"><g class="djs-element djs-connection" data-element-id="Flow_1uwfz7v" style="display: block;"><g class="djs-visual"><defs><marker id="marker-4exnj92w3w70k15p9ttrlvvst" viewBox="0 0 20 20" refX="11" refY="10" markerWidth="10" markerHeight="10" orient="auto"><path d="M 1 5 L 11 10 L 1 15 Z" style="stroke-linecap: round; stroke-linejoin: round; stroke: rgb(34, 36, 42); stroke-width: 1px; fill: rgb(34, 36, 42);"/></marker></defs><path data-corner-radius="5" style="fill: none; stroke-linecap: round; stroke-linejoin: round; stroke: rgb(34, 36, 42); stroke-width: 2px; marker-end: url('#marker-4exnj92w3w70k15p9ttrlvvst');" d="M850,420L880,420"/></g><path d="M850,420L880,420" class="djs-hit djs-hit-stroke" style="fill: none; stroke-opacity: 0; stroke: white; stroke-width: 15px;"/><rect x="845" y="415" rx="4" width="40" height="10" class="djs-outline" style="fill: none;"/></g></g><g class="djs-group"><g class="djs-element djs-connection" data-element-id="Flow_1mxrdag" style="display: block;"><g class="djs-visual"><defs><marker id="marker-c9v8m9fikyyv1gfyccn4eqhun" viewBox="0 0 20 20" refX="11" refY="10" markerWidth="10" markerHeight="10" orient="auto"><path d="M 1 5 L 11 10 L 1 15 Z" style="stroke-linecap: round; stroke-linejoin: round; stroke: rgb(34, 36, 42); stroke-width: 1px; fill: rgb(34, 36, 42);"/></marker></defs><path data-corner-radius="5" style="fill: none; stroke-linecap: round; stroke-linejoin: round; stroke: rgb(34, 36, 42); stroke-width: 2px; marker-end: url('#marker-c9v8m9fikyyv1gfyccn4eqhun');" d="M980,420L1010,420"/></g><path d="M980,420L1010,420" class="djs-hit djs-hit-stroke" style="fill: none; stroke-opacity: 0; stroke: white; stroke-width: 15px;"/><rect x="975" y="415" rx="4" width="40" height="10" class="djs-outline" style="fill: none;"/></g></g><g class="djs-group"><g class="djs-element djs-connection" data-element-id="Flow_14u5kmb" style="display: block;"><g class="djs-visual"><defs><marker id="marker-b5rrwqx1uncvdy2nuvwomotm3" viewBox="0 0 20 20" refX="11" refY="10" markerWidth="10" markerHeight="10" orient="auto"><path d="M 1 5 L 11 10 L 1 15 Z" style="stroke-linecap: round; stroke-linejoin: round; stroke: rgb(34, 36, 42); stroke-width: 1px; fill: rgb(34, 36, 42);"/></marker></defs><path data-corner-radius="5" style="fill: none; stroke-linecap: round; stroke-linejoin: round; stroke: rgb(34, 36, 42); stroke-width: 2px; marker-end: url('#marker-b5rrwqx1uncvdy2nuvwomotm3');" d="M1060,460L1060,495C1060,497.5,1057.5,500,1055,500L755,500C752.5,500,750,502.5,750,505L750,600"/></g><path d="M1060,460L1060,500L750,500L750,600" class="djs-hit djs-hit-stroke" style="fill: none; stroke-opacity: 0; stroke: white; stroke-width: 15px;"/><rect x="745" y="455" rx="4" width="320" height="150" class="djs-outline" style="fill: none;"/></g></g><g class="djs-group"><g class="djs-element djs-connection" data-element-id="Flow_1ya1wmg" style="display: block;"><g class="djs-visual"><defs><marker id="marker-coequgknk4lpocqnnqo6ger0w" viewBox="0 0 20 20" refX="11" refY="10" markerWidth="10" markerHeight="10" orient="auto"><path d="M 1 5 L 11 10 L 1 15 Z" style="stroke-linecap: round; stroke-linejoin: round; stroke: rgb(34, 36, 42); stroke-width: 1px; fill: rgb(34, 36, 42);"/></marker></defs><path data-corner-radius="5" style="fill: none; stroke-linecap: round; stroke-linejoin: round; stroke: rgb(34, 36, 42); stroke-width: 2px; marker-end: url('#marker-coequgknk4lpocqnnqo6ger0w');" d="M1000,665L1000,715C1000,717.5,997.5,720,995,720L755,720C752.5,720,750,717.5,750,715L750,680"/></g><path d="M1000,665L1000,720L750,720L750,680" class="djs-hit djs-hit-stroke" style="fill: none; stroke-opacity: 0; stroke: white; stroke-width: 15px;"/><rect x="745" y="660" rx="4" width="260" height="65" class="djs-outline" style="fill: none;"/></g></g><g class="djs-group"><g class="djs-element djs-shape" data-element-id="Flow_1ya1wmg_label" transform="translate(868 702)" style="display: block;"><g class="djs-visual"><text lineHeight="1.2" class="djs-label" style="font-family: Arial, sans-serif; font-size: 11px; font-weight: normal; fill: rgb(34, 36, 42);"><tspan x="0.46923828125" y="9.899999999999999">No</tspan></text></g><rect class="djs-hit djs-hit-all" x="0" y="0" width="15" height="14" style="fill: none; stroke-opacity: 0; stroke: white; stroke-width: 15px;"/></g></g><g class="djs-group"><g class="djs-element djs-connection" data-element-id="Flow_0shjjiq" style="display: block;"><g class="djs-visual"><defs><marker id="marker-5c6xqtqnnxz663mf6tkfqv11q" viewBox="0 0 20 20" refX="11" refY="10" markerWidth="10" markerHeight="10" orient="auto"><path d="M 1 5 L 11 10 L 1 15 Z" style="stroke-linecap: round; stroke-linejoin: round; stroke: rgb(34, 36, 42); stroke-width: 1px; fill: rgb(34, 36, 42);"/></marker></defs><path data-corner-radius="5" style="fill: none; stroke-linecap: round; stroke-linejoin: round; stroke: rgb(34, 36, 42); stroke-width: 2px; marker-end: url('#marker-5c6xqtqnnxz663mf6tkfqv11q');" d="M800,640L830,640"/></g><path d="M800,640L830,640" class="djs-hit djs-hit-stroke" style="fill: none; stroke-opacity: 0; stroke: white; stroke-width: 15px;"/></g></g><g class="djs-group"><g class="djs-element djs-connection" data-element-id="Flow_1jkm6dl" style="display: block;"><g class="djs-visual"><defs><marker id="marker-1ys3b9zwmdz7g4dsxmxkg2qwg" viewBox="0 0 20 20" refX="11" refY="10" markerWidth="10" markerHeight="10" orient="auto"><path d="M 1 5 L 11 10 L 1 15 Z" style="stroke-linecap: round; stroke-linejoin: round; stroke: rgb(34, 36, 42); stroke-width: 1px; fill: rgb(34, 36, 42);"/></marker></defs><path data-corner-radius="5" style="fill: none; stroke-linecap: round; stroke-linejoin: round; stroke: rgb(34, 36, 42); stroke-width: 2px; marker-end: url('#marker-1ys3b9zwmdz7g4dsxmxkg2qwg');" d="M930,640L975,640"/></g><path d="M930,640L975,640" class="djs-hit djs-hit-stroke" style="fill: none; stroke-opacity: 0; stroke: white; stroke-width: 15px;"/><rect x="925" y="635" rx="4" width="55" height="10" class="djs-outline" style="fill: none;"/></g></g><g class="djs-group"><g class="djs-element djs-connection" data-element-id="Flow_0uedxn6" style="display: block;"><g class="djs-visual"><defs><marker id="marker-1yd29xjqdr15wiyzabzn48jk1" viewBox="0 0 20 20" refX="11" refY="10" markerWidth="10" markerHeight="10" orient="auto"><path d="M 1 5 L 11 10 L 1 15 Z" style="stroke-linecap: round; stroke-linejoin: round; stroke: rgb(34, 36, 42); stroke-width: 1px; fill: rgb(34, 36, 42);"/></marker></defs><path data-corner-radius="5" style="fill: none; stroke-linecap: round; stroke-linejoin: round; stroke: rgb(34, 36, 42); stroke-width: 2px; marker-end: url('#marker-1yd29xjqdr15wiyzabzn48jk1');" d="M1025,640L1082,640"/></g><path d="M1025,640L1082,640" class="djs-hit djs-hit-stroke" style="fill: none; stroke-opacity: 0; stroke: white; stroke-width: 15px;"/><rect x="1020" y="635" rx="4" width="67" height="10" class="djs-outline" style="fill: none;"/></g></g><g class="djs-group"><g class="djs-element djs-shape" data-element-id="Flow_0uedxn6_label" transform="translate(1045 622)" style="display: block;"><g class="djs-visual"><text lineHeight="1.2" class="djs-label" style="font-family: Arial, sans-serif; font-size: 11px; font-weight: normal; fill: rgb(34, 36, 42);"><tspan x="0.027587890625" y="9.899999999999999">Yes</tspan></text></g><rect class="djs-hit djs-hit-all" x="0" y="0" width="18" height="14" style="fill: none; stroke-opacity: 0; stroke: white; stroke-width: 15px;"/><rect x="-5" y="-5" rx="4" width="28" height="24" class="djs-outline" style="fill: none;"/></g></g></g></g><g class="djs-group"><g class="djs-element djs-connection" data-element-id="DataOutputAssociation_13vc49q" style="display: block;"><g class="djs-visual"><defs><marker id="marker-3vbhcm8ufh6ry4p0eizjozbcm" viewBox="0 0 20 20" refX="11" refY="10" markerWidth="10" markerHeight="10" orient="auto"><path d="M 1 5 L 11 10 L 1 15" style="fill: none; stroke-linecap: round; stroke-linejoin: round; stroke: rgb(34, 36, 42); stroke-width: 1.5px; stroke-dasharray: 10000, 1;"/></marker></defs><path data-corner-radius="5" style="fill: none; stroke-linecap: round; stroke-linejoin: round; stroke: rgb(34, 36, 42); stroke-width: 2px; marker-end: url('#marker-3vbhcm8ufh6ry4p0eizjozbcm'); stroke-dasharray: 0, 5;" d="M610,137L822,228"/></g><path d="M610,137L822,228" class="djs-hit djs-hit-stroke" style="fill: none; stroke-opacity: 0; stroke: white; stroke-width: 15px;"/><rect x="605" y="132" rx="4" width="222" height="101" class="djs-outline" style="fill: none;"/></g></g><g class="djs-group"><g class="djs-element djs-connection" data-element-id="DataOutputAssociation_02yg5fg" style="display: block;"><g class="djs-visual"><defs><marker id="marker-2lyqfyolf2w181i51w6plfha3" viewBox="0 0 20 20" refX="11" refY="10" markerWidth="10" markerHeight="10" orient="auto"><path d="M 1 5 L 11 10 L 1 15" style="fill: none; stroke-linecap: round; stroke-linejoin: round; stroke: rgb(34, 36, 42); stroke-width: 1.5px; stroke-dasharray: 10000, 1;"/></marker></defs><path data-corner-radius="5" style="fill: none; stroke-linecap: round; stroke-linejoin: round; stroke: rgb(34, 36, 42); stroke-width: 2px; marker-end: url('#marker-2lyqfyolf2w181i51w6plfha3'); stroke-dasharray: 0, 5;" d="M610,129L962,229"/></g><path d="M610,129L962,229" class="djs-hit djs-hit-stroke" style="fill: none; stroke-opacity: 0; stroke: white; stroke-width: 15px;"/><rect x="605" y="124" rx="4" width="362" height="110" class="djs-outline" style="fill: none;"/></g></g><g class="djs-group"><g class="djs-element djs-connection" data-element-id="DataInputAssociation_0uv2s89" style="display: block;"><g class="djs-visual"><defs><marker id="marker-0ykdr5cgmy25sv27x7zwxjtkn" viewBox="0 0 20 20" refX="11" refY="10" markerWidth="10" markerHeight="10" orient="auto"><path d="M 1 5 L 11 10 L 1 15" style="fill: none; stroke-linecap: round; stroke-linejoin: round; stroke: rgb(34, 36, 42); stroke-width: 1.5px; stroke-dasharray: 10000, 1;"/></marker></defs><path data-corner-radius="5" style="fill: none; stroke-linecap: round; stroke-linejoin: round; stroke: rgb(34, 36, 42); stroke-width: 2px; marker-end: url('#marker-0ykdr5cgmy25sv27x7zwxjtkn'); stroke-dasharray: 0, 5;" d="M670,485L670,460"/></g><path d="M670,485L670,460" class="djs-hit djs-hit-stroke" style="fill: none; stroke-opacity: 0; stroke: white; stroke-width: 15px;"/><rect x="665" y="455" rx="4" width="10" height="35" class="djs-outline" style="fill: none;"/></g></g><g class="djs-group"><g class="djs-element djs-connection" data-element-id="DataInputAssociation_0cgcck6" style="display: block;"><g class="djs-visual"><defs><marker id="marker-6s9uq8gi0cxrhae7ahxeuiyhp" viewBox="0 0 20 20" refX="11" refY="10" markerWidth="10" markerHeight="10" orient="auto"><path d="M 1 5 L 11 10 L 1 15" style="fill: none; stroke-linecap: round; stroke-linejoin: round; stroke: rgb(34, 36, 42); stroke-width: 1.5px; stroke-dasharray: 10000, 1;"/></marker></defs><path data-corner-radius="5" style="fill: none; stroke-linecap: round; stroke-linejoin: round; stroke: rgb(34, 36, 42); stroke-width: 2px; marker-end: url('#marker-6s9uq8gi0cxrhae7ahxeuiyhp'); stroke-dasharray: 0, 5;" d="M998,256L1186.29506524282,426.6424028763057C1188.14753262141,428.32120143815285,1187.8800042399873,431.32499735000795,1185.7600084799747,432.6499947000159L1034.2399915200253,527.3500052999841C1032.1199957600127,528.675002649992,1027.7950501966316,531.1782174521816,1025.5901003932631,532.3564349043633L899,600"/></g><path d="M998,256L1190,430L1030,530L899,600" class="djs-hit djs-hit-stroke" style="fill: none; stroke-opacity: 0; stroke: white; stroke-width: 15px;"/><rect x="894" y="251" rx="4" width="301" height="354" class="djs-outline" style="fill: none;"/></g></g><g class="djs-group"><g class="djs-element djs-shape" data-element-id="DataObjectReference_1lbxwao_label" transform="translate(804 272)" style="display: block;"><g class="djs-visual"><text lineHeight="1.2" class="djs-label" style="font-family: Arial, sans-serif; font-size: 11px; font-weight: normal; fill: rgb(34, 36, 42);"><tspan x="11.13232421875" y="9.899999999999999">IFC Model </tspan><tspan x="0.108154296875" y="23.099999999999998">Building #2604</tspan></text></g><rect class="djs-hit djs-hit-all" x="0" y="0" width="73" height="27" style="fill: none; stroke-opacity: 0; stroke: white; stroke-width: 15px;"/><rect x="-5" y="-5" rx="4" width="83" height="37" class="djs-outline" style="fill: none;"/></g></g></svg>